<svg viewBox="0 0 400 400" xmlns="http://www.w3.org/2000/svg">
  <!-- Light blue top layer -->
  <polygon points="200,50 300,150 200,200 100,150" fill="#87CEEB" opacity="0.9"/>
  
  <!-- Medium blue second layer -->
  <polygon points="200,80 280,160 200,210 120,160" fill="#4A90E2" opacity="0.9"/>
  
  <!-- Dark blue third layer -->
  <polygon points="200,110 260,170 200,220 140,170" fill="#2E5BBA" opacity="0.9"/>
  
  <!-- Darkest blue bottom layer -->
  <polygon points="200,140 240,180 200,230 160,180" fill="#1E3A8A" opacity="0.9"/>
  
  <!-- Light green top right -->
  <polygon points="200,50 350,100 300,150 200,200" fill="#A3D977" opacity="0.9"/>
  
  <!-- Medium green second layer -->
  <polygon points="200,80 330,120 280,160 200,210" fill="#7CB342" opacity="0.9"/>
  
  <!-- Dark green third layer -->
  <polygon points="200,110 310,140 260,170 200,220" fill="#558B2F" opacity="0.9"/>
  
  <!-- Darkest green bottom layer -->
  <polygon points="200,140 290,160 240,180 200,230" fill="#33691E" opacity="0.9"/>
  
  <!-- White geometric accent in center -->
  <polygon points="200,100 240,120 200,160 160,120" fill="white"/>
</svg>
